<svg className="join-our-community-icon" width="12" height="12" viewBox="0 0 12 12" fill="none"
    xmlns="http://www.w3.org/2000/svg">
    <path d="M1.80536 11.7833C1.85925 11.7445 1.90963 11.701 1.95597 11.6534L9.94905 3.6546L9.85582 3.91014C9.76609 4.16132 9.72085 4.42624 9.72206 4.69298V9.1791C9.70866 9.75652 10.1124 10.2598 10.6786 10.3716C11.3044 10.4684 11.89 10.0393 11.9868 9.41309C11.9946 9.36249 11.999 9.31141 12 9.26023L12 1.14789C12.0004 0.514271 11.4874 0.000354803 10.8542 0C10.8546 0 10.8538 0 10.8542 0L2.74638 1.55322e-06C2.11324 0.000888945 1.60067 0.515236 1.60154 1.14886C1.60161 1.19873 1.60493 1.24854 1.61147 1.29797C1.72318 1.86462 2.22612 2.26864 2.80313 2.25523L7.28605 2.26334C7.52405 2.26347 7.76063 2.22653 7.98726 2.15382L8.3399 2.01997L0.37927 9.98628C-0.050225 10.3853 -0.124273 11.0384 0.204979 11.5236C0.575245 12.0375 1.29174 12.1538 1.80536 11.7833Z" fill="#FBC93B"/>
</svg>
