<svg width="40" height="40" viewBox="0 0 40 40" fill="none" xmlns="http://www.w3.org/2000/svg">
<rect width="40" height="40" rx="20" fill="#24272C"/>
<g clip-path="url(#clip0)">
<path d="M20.7729 20.0008L26.8393 13.9344C27.0529 13.7208 27.0529 13.3745 26.8393 13.1609C26.6258 12.9474 26.2795 12.9474 26.0659 13.1609L19.9995 19.2274L13.9331 13.1609C13.7195 12.9474 13.3733 12.9474 13.1597 13.1609C12.9461 13.3745 12.9461 13.7208 13.1597 13.9344L19.2261 20.0008L13.1597 26.0672C12.9461 26.2808 12.9461 26.627 13.1597 26.8406C13.2665 26.9474 13.4064 27.0007 13.5464 27.0007C13.6864 27.0007 13.8263 26.9474 13.9331 26.8406L19.9995 20.7742L26.0659 26.8406C26.1727 26.9474 26.3126 27.0007 26.4526 27.0007C26.5926 27.0007 26.7325 26.9474 26.8393 26.8406C27.0529 26.627 27.0529 26.2807 26.8393 26.0672L20.7729 20.0008Z" fill="white"/>
</g>
<defs>
<clipPath id="clip0">
<rect width="14" height="14" fill="white" transform="translate(13 13)"/>
</clipPath>
</defs>
</svg>
